<svg xmlns="http://www.w3.org/2000/svg" width="50.0mm" height="350.0mm" viewBox="0 0 50.0 350.0"><path d="M-10.392,-9.000 L-7.794,-10.500 L-10.392,-12.000 L-12.990,-10.500ZM-5.196,-9.000 L-2.598,-10.500 L-5.196,-12.000 L-7.794,-10.500ZM0.000,-9.000 L2.598,-10.500 L0.000,-12.000 L-2.598,-10.500ZM5.196,-9.000 L7.794,-10.500 L5.196,-12.000 L2.598,-10.500ZM10.392,-9.000 L12.990,-10.500 L10.392,-12.000 L7.794,-10.500ZM15.588,-9.000 L18.187,-10.500 L15.588,-12.000 L12.990,-10.500ZM20.785,-9.000 L23.383,-10.500 L20.785,-12.000 L18.187,-10.500ZM25.981,-9.000 L28.579,-10.500 L25.981,-12.000 L23.383,-10.500ZM31.177,-9.000 L33.775,-10.500 L31.177,-12.000 L28.579,-10.500ZM36.373,-9.000 L38.971,-10.500 L36.373,-12.000 L33.775,-10.500ZM41.569,-9.000 L44.167,-10.500 L41.569,-12.000 L38.971,-10.500ZM46.765,-9.000 L49.363,-10.500 L46.765,-12.000 L44.167,-10.500ZM51.962,-9.000 L54.560,-10.500 L51.962,-12.000 L49.363,-10.500ZM-7.794,-4.500 L-5.196,-6.000 L-7.794,-7.500 L-10.392,-6.000ZM-2.598,-4.500 L0.000,-6.000 L-2.598,-7.500 L-5.196,-6.000ZM2.598,-4.500 L5.196,-6.000 L2.598,-7.500 L0.000,-6.000ZM7.794,-4.500 L10.392,-6.000 L7.794,-7.500 L5.196,-6.000ZM12.990,-4.500 L15.588,-6.000 L12.990,-7.500 L10.392,-6.000ZM18.187,-4.500 L20.785,-6.000 L18.187,-7.500 L15.588,-6.000ZM23.383,-4.500 L25.981,-6.000 L23.383,-7.500 L20.785,-6.000ZM28.579,-4.500 L31.177,-6.000 L28.579,-7.500 L25.981,-6.000ZM33.775,-4.500 L36.373,-6.000 L33.775,-7.500 L31.177,-6.000ZM38.971,-4.500 L41.569,-6.000 L38.971,-7.500 L36.373,-6.000ZM44.167,-4.500 L46.765,-6.000 L44.167,-7.500 L41.569,-6.000ZM49.363,-4.500 L51.962,-6.000 L49.363,-7.500 L46.765,-6.000ZM54.560,-4.500 L57.158,-6.000 L54.560,-7.500 L51.962,-6.000ZM-10.392,0.000 L-7.794,-1.500 L-10.392,-3.000 L-12.990,-1.500ZM-5.196,0.000 L-2.598,-1.500 L-5.196,-3.000 L-7.794,-1.500ZM0.000,0.000 L2.598,-1.500 L0.000,-3.000 L-2.598,-1.500ZM5.196,0.000 L7.794,-1.500 L5.196,-3.000 L2.598,-1.500ZM10.392,0.000 L12.990,-1.500 L10.392,-3.000 L7.794,-1.500ZM15.588,0.000 L18.187,-1.500 L15.588,-3.000 L12.990,-1.500ZM20.785,0.000 L23.383,-1.500 L20.785,-3.000 L18.187,-1.500ZM25.981,0.000 L28.579,-1.500 L25.981,-3.000 L23.383,-1.500ZM31.177,0.000 L33.775,-1.500 L31.177,-3.000 L28.579,-1.500ZM36.373,0.000 L38.971,-1.500 L36.373,-3.000 L33.775,-1.500ZM41.569,0.000 L44.167,-1.500 L41.569,-3.000 L38.971,-1.500ZM46.765,0.000 L49.363,-1.500 L46.765,-3.000 L44.167,-1.500ZM51.962,0.000 L54.560,-1.500 L51.962,-3.000 L49.363,-1.500ZM-7.794,4.500 L-5.196,3.000 L-7.794,1.500 L-10.392,3.000ZM-2.598,4.500 L0.000,3.000 L-2.598,1.500 L-5.196,3.000ZM2.598,4.500 L5.196,3.000 L2.598,1.500 L0.000,3.000ZM7.794,4.500 L10.392,3.000 L7.794,1.500 L5.196,3.000ZM12.990,4.500 L15.588,3.000 L12.990,1.500 L10.392,3.000ZM18.187,4.500 L20.785,3.000 L18.187,1.500 L15.588,3.000ZM23.383,4.500 L25.981,3.000 L23.383,1.500 L20.785,3.000ZM28.579,4.500 L31.177,3.000 L28.579,1.500 L25.981,3.000ZM33.775,4.500 L36.373,3.000 L33.775,1.500 L31.177,3.000ZM38.971,4.500 L41.569,3.000 L38.971,1.500 L36.373,3.000ZM44.167,4.500 L46.765,3.000 L44.167,1.500 L41.569,3.000ZM49.363,4.500 L51.962,3.000 L49.363,1.500 L46.765,3.000ZM54.560,4.500 L57.158,3.000 L54.560,1.500 L51.962,3.000ZM-10.392,9.000 L-7.794,7.500 L-10.392,6.000 L-12.990,7.500ZM-5.196,9.000 L-2.598,7.500 L-5.196,6.000 L-7.794,7.500ZM0.000,9.000 L2.598,7.500 L0.000,6.000 L-2.598,7.500ZM5.196,9.000 L7.794,7.500 L5.196,6.000 L2.598,7.500ZM10.392,9.000 L12.990,7.500 L10.392,6.000 L7.794,7.500ZM15.588,9.000 L18.187,7.500 L15.588,6.000 L12.990,7.500ZM20.785,9.000 L23.383,7.500 L20.785,6.000 L18.187,7.500ZM25.981,9.000 L28.579,7.500 L25.981,6.000 L23.383,7.500ZM31.177,9.000 L33.775,7.500 L31.177,6.000 L28.579,7.500ZM36.373,9.000 L38.971,7.500 L36.373,6.000 L33.775,7.500ZM41.569,9.000 L44.167,7.500 L41.569,6.000 L38.971,7.500ZM46.765,9.000 L49.363,7.500 L46.765,6.000 L44.167,7.500ZM51.962,9.000 L54.560,7.500 L51.962,6.000 L49.363,7.500ZM-7.794,13.500 L-5.196,12.000 L-7.794,10.500 L-10.392,12.000ZM-2.598,13.500 L0.000,12.000 L-2.598,10.500 L-5.196,12.000ZM2.598,13.500 L5.196,12.000 L2.598,10.500 L0.000,12.000ZM7.794,13.500 L10.392,12.000 L7.794,10.500 L5.196,12.000ZM12.990,13.500 L15.588,12.000 L12.990,10.500 L10.392,12.000ZM18.187,13.500 L20.785,12.000 L18.187,10.500 L15.588,12.000ZM23.383,13.500 L25.981,12.000 L23.383,10.500 L20.785,12.000ZM28.579,13.500 L31.177,12.000 L28.579,10.500 L25.981,12.000ZM33.775,13.500 L36.373,12.000 L33.775,10.500 L31.177,12.000ZM38.971,13.500 L41.569,12.000 L38.971,10.500 L36.373,12.000ZM44.167,13.500 L46.765,12.000 L44.167,10.500 L41.569,12.000ZM49.363,13.500 L51.962,12.000 L49.363,10.500 L46.765,12.000ZM54.560,13.500 L57.158,12.000 L54.560,10.500 L51.962,12.000ZM-10.392,18.000 L-7.794,16.500 L-10.392,15.000 L-12.990,16.500ZM-5.196,18.000 L-2.598,16.500 L-5.196,15.000 L-7.794,16.500ZM0.000,18.000 L2.598,16.500 L0.000,15.000 L-2.598,16.500ZM5.196,18.000 L7.794,16.500 L5.196,15.000 L2.598,16.500ZM10.392,18.000 L12.990,16.500 L10.392,15.000 L7.794,16.500ZM15.588,18.000 L18.187,16.500 L15.588,15.000 L12.990,16.500ZM20.785,18.000 L23.383,16.500 L20.785,15.000 L18.187,16.500ZM25.981,18.000 L28.579,16.500 L25.981,15.000 L23.383,16.500ZM31.177,18.000 L33.775,16.500 L31.177,15.000 L28.579,16.500ZM36.373,18.000 L38.971,16.500 L36.373,15.000 L33.775,16.500ZM41.569,18.000 L44.167,16.500 L41.569,15.000 L38.971,16.500ZM46.765,18.000 L49.363,16.500 L46.765,15.000 L44.167,16.500ZM51.962,18.000 L54.560,16.500 L51.962,15.000 L49.363,16.500ZM-7.794,22.500 L-5.196,21.000 L-7.794,19.500 L-10.392,21.000ZM-2.598,22.500 L0.000,21.000 L-2.598,19.500 L-5.196,21.000ZM2.598,22.500 L5.196,21.000 L2.598,19.500 L0.000,21.000ZM7.794,22.500 L10.392,21.000 L7.794,19.500 L5.196,21.000ZM12.990,22.500 L15.588,21.000 L12.990,19.500 L10.392,21.000ZM18.187,22.500 L20.785,21.000 L18.187,19.500 L15.588,21.000ZM23.383,22.500 L25.981,21.000 L23.383,19.500 L20.785,21.000ZM28.579,22.500 L31.177,21.000 L28.579,19.500 L25.981,21.000ZM33.775,22.500 L36.373,21.000 L33.775,19.500 L31.177,21.000ZM38.971,22.500 L41.569,21.000 L38.971,19.500 L36.373,21.000ZM44.167,22.500 L46.765,21.000 L44.167,19.500 L41.569,21.000ZM49.363,22.500 L51.962,21.000 L49.363,19.500 L46.765,21.000ZM54.560,22.500 L57.158,21.000 L54.560,19.500 L51.962,21.000ZM-10.392,27.000 L-7.794,25.500 L-10.392,24.000 L-12.990,25.500ZM-5.196,27.000 L-2.598,25.500 L-5.196,24.000 L-7.794,25.500ZM0.000,27.000 L2.598,25.500 L0.000,24.000 L-2.598,25.500ZM5.196,27.000 L7.794,25.500 L5.196,24.000 L2.598,25.500ZM10.392,27.000 L12.990,25.500 L10.392,24.000 L7.794,25.500ZM15.588,27.000 L18.187,25.500 L15.588,24.000 L12.990,25.500ZM20.785,27.000 L23.383,25.500 L20.785,24.000 L18.187,25.500ZM25.981,27.000 L28.579,25.500 L25.981,24.000 L23.383,25.500ZM31.177,27.000 L33.775,25.500 L31.177,24.000 L28.579,25.500ZM36.373,27.000 L38.971,25.500 L36.373,24.000 L33.775,25.500ZM41.569,27.000 L44.167,25.500 L41.569,24.000 L38.971,25.500ZM46.765,27.000 L49.363,25.500 L46.765,24.000 L44.167,25.500ZM51.962,27.000 L54.560,25.500 L51.962,24.000 L49.363,25.500ZM-7.794,31.500 L-5.196,30.000 L-7.794,28.500 L-10.392,30.000ZM-2.598,31.500 L0.000,30.000 L-2.598,28.500 L-5.196,30.000ZM2.598,31.500 L5.196,30.000 L2.598,28.500 L0.000,30.000ZM7.794,31.500 L10.392,30.000 L7.794,28.500 L5.196,30.000ZM12.990,31.500 L15.588,30.000 L12.990,28.500 L10.392,30.000ZM18.187,31.500 L20.785,30.000 L18.187,28.500 L15.588,30.000ZM23.383,31.500 L25.981,30.000 L23.383,28.500 L20.785,30.000ZM28.579,31.500 L31.177,30.000 L28.579,28.500 L25.981,30.000ZM33.775,31.500 L36.373,30.000 L33.775,28.500 L31.177,30.000ZM38.971,31.500 L41.569,30.000 L38.971,28.500 L36.373,30.000ZM44.167,31.500 L46.765,30.000 L44.167,28.500 L41.569,30.000ZM49.363,31.500 L51.962,30.000 L49.363,28.500 L46.765,30.000ZM54.560,31.500 L57.158,30.000 L54.560,28.500 L51.962,30.000ZM-10.392,36.000 L-7.794,34.500 L-10.392,33.000 L-12.990,34.500ZM-5.196,36.000 L-2.598,34.500 L-5.196,33.000 L-7.794,34.500ZM0.000,36.000 L2.598,34.500 L0.000,33.000 L-2.598,34.500ZM5.196,36.000 L7.794,34.500 L5.196,33.000 L2.598,34.500ZM10.392,36.000 L12.990,34.500 L10.392,33.000 L7.794,34.500ZM15.588,36.000 L18.187,34.500 L15.588,33.000 L12.990,34.500ZM20.785,36.000 L23.383,34.500 L20.785,33.000 L18.187,34.500ZM25.981,36.000 L28.579,34.500 L25.981,33.000 L23.383,34.500ZM31.177,36.000 L33.775,34.500 L31.177,33.000 L28.579,34.500ZM36.373,36.000 L38.971,34.500 L36.373,33.000 L33.775,34.500ZM41.569,36.000 L44.167,34.500 L41.569,33.000 L38.971,34.500ZM46.765,36.000 L49.363,34.500 L46.765,33.000 L44.167,34.500ZM51.962,36.000 L54.560,34.500 L51.962,33.000 L49.363,34.500ZM-7.794,40.500 L-5.196,39.000 L-7.794,37.500 L-10.392,39.000ZM-2.598,40.500 L0.000,39.000 L-2.598,37.500 L-5.196,39.000ZM2.598,40.500 L5.196,39.000 L2.598,37.500 L0.000,39.000ZM7.794,40.500 L10.392,39.000 L7.794,37.500 L5.196,39.000ZM12.990,40.500 L15.588,39.000 L12.990,37.500 L10.392,39.000ZM18.187,40.500 L20.785,39.000 L18.187,37.500 L15.588,39.000ZM23.383,40.500 L25.981,39.000 L23.383,37.500 L20.785,39.000ZM28.579,40.500 L31.177,39.000 L28.579,37.500 L25.981,39.000ZM33.775,40.500 L36.373,39.000 L33.775,37.500 L31.177,39.000ZM38.971,40.500 L41.569,39.000 L38.971,37.500 L36.373,39.000ZM44.167,40.500 L46.765,39.000 L44.167,37.500 L41.569,39.000ZM49.363,40.500 L51.962,39.000 L49.363,37.500 L46.765,39.000ZM54.560,40.500 L57.158,39.000 L54.560,37.500 L51.962,39.000ZM-10.392,45.000 L-7.794,43.500 L-10.392,42.000 L-12.990,43.500ZM-5.196,45.000 L-2.598,43.500 L-5.196,42.000 L-7.794,43.500ZM0.000,45.000 L2.598,43.500 L0.000,42.000 L-2.598,43.500ZM5.196,45.000 L7.794,43.500 L5.196,42.000 L2.598,43.500ZM10.392,45.000 L12.990,43.500 L10.392,42.000 L7.794,43.500ZM15.588,45.000 L18.187,43.500 L15.588,42.000 L12.990,43.500ZM20.785,45.000 L23.383,43.500 L20.785,42.000 L18.187,43.500ZM25.981,45.000 L28.579,43.500 L25.981,42.000 L23.383,43.500ZM31.177,45.000 L33.775,43.500 L31.177,42.000 L28.579,43.500ZM36.373,45.000 L38.971,43.500 L36.373,42.000 L33.775,43.500ZM41.569,45.000 L44.167,43.500 L41.569,42.000 L38.971,43.500ZM46.765,45.000 L49.363,43.500 L46.765,42.000 L44.167,43.500ZM51.962,45.000 L54.560,43.500 L51.962,42.000 L49.363,43.500ZM-7.794,49.500 L-5.196,48.000 L-7.794,46.500 L-10.392,48.000ZM-2.598,49.500 L0.000,48.000 L-2.598,46.500 L-5.196,48.000ZM2.598,49.500 L5.196,48.000 L2.598,46.500 L0.000,48.000ZM7.794,49.500 L10.392,48.000 L7.794,46.500 L5.196,48.000ZM12.990,49.500 L15.588,48.000 L12.990,46.500 L10.392,48.000ZM18.187,49.500 L20.785,48.000 L18.187,46.500 L15.588,48.000ZM23.383,49.500 L25.981,48.000 L23.383,46.500 L20.785,48.000ZM28.579,49.500 L31.177,48.000 L28.579,46.500 L25.981,48.000ZM33.775,49.500 L36.373,48.000 L33.775,46.500 L31.177,48.000ZM38.971,49.500 L41.569,48.000 L38.971,46.500 L36.373,48.000ZM44.167,49.500 L46.765,48.000 L44.167,46.500 L41.569,48.000ZM49.363,49.500 L51.962,48.000 L49.363,46.500 L46.765,48.000ZM54.560,49.500 L57.158,48.000 L54.560,46.500 L51.962,48.000ZM-10.392,54.000 L-7.794,52.500 L-10.392,51.000 L-12.990,52.500ZM-5.196,54.000 L-2.598,52.500 L-5.196,51.000 L-7.794,52.500ZM0.000,54.000 L2.598,52.500 L0.000,51.000 L-2.598,52.500ZM5.196,54.000 L7.794,52.500 L5.196,51.000 L2.598,52.500ZM10.392,54.000 L12.990,52.500 L10.392,51.000 L7.794,52.500ZM15.588,54.000 L18.187,52.500 L15.588,51.000 L12.990,52.500ZM20.785,54.000 L23.383,52.500 L20.785,51.000 L18.187,52.500ZM25.981,54.000 L28.579,52.500 L25.981,51.000 L23.383,52.500ZM31.177,54.000 L33.775,52.500 L31.177,51.000 L28.579,52.500ZM36.373,54.000 L38.971,52.500 L36.373,51.000 L33.775,52.500ZM41.569,54.000 L44.167,52.500 L41.569,51.000 L38.971,52.500ZM46.765,54.000 L49.363,52.500 L46.765,51.000 L44.167,52.500ZM51.962,54.000 L54.560,52.500 L51.962,51.000 L49.363,52.500ZM-7.794,58.500 L-5.196,57.000 L-7.794,55.500 L-10.392,57.000ZM-2.598,58.500 L0.000,57.000 L-2.598,55.500 L-5.196,57.000ZM2.598,58.500 L5.196,57.000 L2.598,55.500 L0.000,57.000ZM7.794,58.500 L10.392,57.000 L7.794,55.500 L5.196,57.000ZM12.990,58.500 L15.588,57.000 L12.990,55.500 L10.392,57.000ZM18.187,58.500 L20.785,57.000 L18.187,55.500 L15.588,57.000ZM23.383,58.500 L25.981,57.000 L23.383,55.500 L20.785,57.000ZM28.579,58.500 L31.177,57.000 L28.579,55.500 L25.981,57.000ZM33.775,58.500 L36.373,57.000 L33.775,55.500 L31.177,57.000ZM38.971,58.500 L41.569,57.000 L38.971,55.500 L36.373,57.000ZM44.167,58.500 L46.765,57.000 L44.167,55.500 L41.569,57.000ZM49.363,58.500 L51.962,57.000 L49.363,55.500 L46.765,57.000ZM54.560,58.500 L57.158,57.000 L54.560,55.500 L51.962,57.000ZM-10.392,63.000 L-7.794,61.500 L-10.392,60.000 L-12.990,61.500ZM-5.196,63.000 L-2.598,61.500 L-5.196,60.000 L-7.794,61.500ZM0.000,63.000 L2.598,61.500 L0.000,60.000 L-2.598,61.500ZM5.196,63.000 L7.794,61.500 L5.196,60.000 L2.598,61.500ZM10.392,63.000 L12.990,61.500 L10.392,60.000 L7.794,61.500ZM15.588,63.000 L18.187,61.500 L15.588,60.000 L12.990,61.500ZM20.785,63.000 L23.383,61.500 L20.785,60.000 L18.187,61.500ZM25.981,63.000 L28.579,61.500 L25.981,60.000 L23.383,61.500ZM31.177,63.000 L33.775,61.500 L31.177,60.000 L28.579,61.500ZM36.373,63.000 L38.971,61.500 L36.373,60.000 L33.775,61.500ZM41.569,63.000 L44.167,61.500 L41.569,60.000 L38.971,61.500ZM46.765,63.000 L49.363,61.500 L46.765,60.000 L44.167,61.500ZM51.962,63.000 L54.560,61.500 L51.962,60.000 L49.363,61.500ZM-7.794,67.500 L-5.196,66.000 L-7.794,64.500 L-10.392,66.000ZM-2.598,67.500 L0.000,66.000 L-2.598,64.500 L-5.196,66.000ZM2.598,67.500 L5.196,66.000 L2.598,64.500 L0.000,66.000ZM7.794,67.500 L10.392,66.000 L7.794,64.500 L5.196,66.000ZM12.990,67.500 L15.588,66.000 L12.990,64.500 L10.392,66.000ZM18.187,67.500 L20.785,66.000 L18.187,64.500 L15.588,66.000ZM23.383,67.500 L25.981,66.000 L23.383,64.500 L20.785,66.000ZM28.579,67.500 L31.177,66.000 L28.579,64.500 L25.981,66.000ZM33.775,67.500 L36.373,66.000 L33.775,64.500 L31.177,66.000ZM38.971,67.500 L41.569,66.000 L38.971,64.500 L36.373,66.000ZM44.167,67.500 L46.765,66.000 L44.167,64.500 L41.569,66.000ZM49.363,67.500 L51.962,66.000 L49.363,64.500 L46.765,66.000ZM54.560,67.500 L57.158,66.000 L54.560,64.500 L51.962,66.000ZM-10.392,72.000 L-7.794,70.500 L-10.392,69.000 L-12.990,70.500ZM-5.196,72.000 L-2.598,70.500 L-5.196,69.000 L-7.794,70.500ZM0.000,72.000 L2.598,70.500 L0.000,69.000 L-2.598,70.500ZM5.196,72.000 L7.794,70.500 L5.196,69.000 L2.598,70.500ZM10.392,72.000 L12.990,70.500 L10.392,69.000 L7.794,70.500ZM15.588,72.000 L18.187,70.500 L15.588,69.000 L12.990,70.500ZM20.785,72.000 L23.383,70.500 L20.785,69.000 L18.187,70.500ZM25.981,72.000 L28.579,70.500 L25.981,69.000 L23.383,70.500ZM31.177,72.000 L33.775,70.500 L31.177,69.000 L28.579,70.500ZM36.373,72.000 L38.971,70.500 L36.373,69.000 L33.775,70.500ZM41.569,72.000 L44.167,70.500 L41.569,69.000 L38.971,70.500ZM46.765,72.000 L49.363,70.500 L46.765,69.000 L44.167,70.500ZM51.962,72.000 L54.560,70.500 L51.962,69.000 L49.363,70.500ZM-7.794,76.500 L-5.196,75.000 L-7.794,73.500 L-10.392,75.000ZM-2.598,76.500 L0.000,75.000 L-2.598,73.500 L-5.196,75.000ZM2.598,76.500 L5.196,75.000 L2.598,73.500 L0.000,75.000ZM7.794,76.500 L10.392,75.000 L7.794,73.500 L5.196,75.000ZM12.990,76.500 L15.588,75.000 L12.990,73.500 L10.392,75.000ZM18.187,76.500 L20.785,75.000 L18.187,73.500 L15.588,75.000ZM23.383,76.500 L25.981,75.000 L23.383,73.500 L20.785,75.000ZM28.579,76.500 L31.177,75.000 L28.579,73.500 L25.981,75.000ZM33.775,76.500 L36.373,75.000 L33.775,73.500 L31.177,75.000ZM38.971,76.500 L41.569,75.000 L38.971,73.500 L36.373,75.000ZM44.167,76.500 L46.765,75.000 L44.167,73.500 L41.569,75.000ZM49.363,76.500 L51.962,75.000 L49.363,73.500 L46.765,75.000ZM54.560,76.500 L57.158,75.000 L54.560,73.500 L51.962,75.000ZM-10.392,81.000 L-7.794,79.500 L-10.392,78.000 L-12.990,79.500ZM-5.196,81.000 L-2.598,79.500 L-5.196,78.000 L-7.794,79.500ZM0.000,81.000 L2.598,79.500 L0.000,78.000 L-2.598,79.500ZM5.196,81.000 L7.794,79.500 L5.196,78.000 L2.598,79.500ZM10.392,81.000 L12.990,79.500 L10.392,78.000 L7.794,79.500ZM15.588,81.000 L18.187,79.500 L15.588,78.000 L12.990,79.500ZM20.785,81.000 L23.383,79.500 L20.785,78.000 L18.187,79.500ZM25.981,81.000 L28.579,79.500 L25.981,78.000 L23.383,79.500ZM31.177,81.000 L33.775,79.500 L31.177,78.000 L28.579,79.500ZM36.373,81.000 L38.971,79.500 L36.373,78.000 L33.775,79.500ZM41.569,81.000 L44.167,79.500 L41.569,78.000 L38.971,79.500ZM46.765,81.000 L49.363,79.500 L46.765,78.000 L44.167,79.500ZM51.962,81.000 L54.560,79.500 L51.962,78.000 L49.363,79.500ZM-7.794,85.500 L-5.196,84.000 L-7.794,82.500 L-10.392,84.000ZM-2.598,85.500 L0.000,84.000 L-2.598,82.500 L-5.196,84.000ZM2.598,85.500 L5.196,84.000 L2.598,82.500 L0.000,84.000ZM7.794,85.500 L10.392,84.000 L7.794,82.500 L5.196,84.000ZM12.990,85.500 L15.588,84.000 L12.990,82.500 L10.392,84.000ZM18.187,85.500 L20.785,84.000 L18.187,82.500 L15.588,84.000ZM23.383,85.500 L25.981,84.000 L23.383,82.500 L20.785,84.000ZM28.579,85.500 L31.177,84.000 L28.579,82.500 L25.981,84.000ZM33.775,85.500 L36.373,84.000 L33.775,82.500 L31.177,84.000ZM38.971,85.500 L41.569,84.000 L38.971,82.500 L36.373,84.000ZM44.167,85.500 L46.765,84.000 L44.167,82.500 L41.569,84.000ZM49.363,85.500 L51.962,84.000 L49.363,82.500 L46.765,84.000ZM54.560,85.500 L57.158,84.000 L54.560,82.500 L51.962,84.000ZM-10.392,90.000 L-7.794,88.500 L-10.392,87.000 L-12.990,88.500ZM-5.196,90.000 L-2.598,88.500 L-5.196,87.000 L-7.794,88.500ZM0.000,90.000 L2.598,88.500 L0.000,87.000 L-2.598,88.500ZM5.196,90.000 L7.794,88.500 L5.196,87.000 L2.598,88.500ZM10.392,90.000 L12.990,88.500 L10.392,87.000 L7.794,88.500ZM15.588,90.000 L18.187,88.500 L15.588,87.000 L12.990,88.500ZM20.785,90.000 L23.383,88.500 L20.785,87.000 L18.187,88.500ZM25.981,90.000 L28.579,88.500 L25.981,87.000 L23.383,88.500ZM31.177,90.000 L33.775,88.500 L31.177,87.000 L28.579,88.500ZM36.373,90.000 L38.971,88.500 L36.373,87.000 L33.775,88.500ZM41.569,90.000 L44.167,88.500 L41.569,87.000 L38.971,88.500ZM46.765,90.000 L49.363,88.500 L46.765,87.000 L44.167,88.500ZM51.962,90.000 L54.560,88.500 L51.962,87.000 L49.363,88.500ZM-7.794,94.500 L-5.196,93.000 L-7.794,91.500 L-10.392,93.000ZM-2.598,94.500 L0.000,93.000 L-2.598,91.500 L-5.196,93.000ZM2.598,94.500 L5.196,93.000 L2.598,91.500 L0.000,93.000ZM7.794,94.500 L10.392,93.000 L7.794,91.500 L5.196,93.000ZM12.990,94.500 L15.588,93.000 L12.990,91.500 L10.392,93.000ZM18.187,94.500 L20.785,93.000 L18.187,91.500 L15.588,93.000ZM23.383,94.500 L25.981,93.000 L23.383,91.500 L20.785,93.000ZM28.579,94.500 L31.177,93.000 L28.579,91.500 L25.981,93.000ZM33.775,94.500 L36.373,93.000 L33.775,91.500 L31.177,93.000ZM38.971,94.500 L41.569,93.000 L38.971,91.500 L36.373,93.000ZM44.167,94.500 L46.765,93.000 L44.167,91.500 L41.569,93.000ZM49.363,94.500 L51.962,93.000 L49.363,91.500 L46.765,93.000ZM54.560,94.500 L57.158,93.000 L54.560,91.500 L51.962,93.000ZM-10.392,99.000 L-7.794,97.500 L-10.392,96.000 L-12.990,97.500ZM-5.196,99.000 L-2.598,97.500 L-5.196,96.000 L-7.794,97.500ZM0.000,99.000 L2.598,97.500 L0.000,96.000 L-2.598,97.500ZM5.196,99.000 L7.794,97.500 L5.196,96.000 L2.598,97.500ZM10.392,99.000 L12.990,97.500 L10.392,96.000 L7.794,97.500ZM15.588,99.000 L18.187,97.500 L15.588,96.000 L12.990,97.500ZM20.785,99.000 L23.383,97.500 L20.785,96.000 L18.187,97.500ZM25.981,99.000 L28.579,97.500 L25.981,96.000 L23.383,97.500ZM31.177,99.000 L33.775,97.500 L31.177,96.000 L28.579,97.500ZM36.373,99.000 L38.971,97.500 L36.373,96.000 L33.775,97.500ZM41.569,99.000 L44.167,97.500 L41.569,96.000 L38.971,97.500ZM46.765,99.000 L49.363,97.500 L46.765,96.000 L44.167,97.500ZM51.962,99.000 L54.560,97.500 L51.962,96.000 L49.363,97.500ZM-7.794,103.500 L-5.196,102.000 L-7.794,100.500 L-10.392,102.000ZM-2.598,103.500 L0.000,102.000 L-2.598,100.500 L-5.196,102.000ZM2.598,103.500 L5.196,102.000 L2.598,100.500 L0.000,102.000ZM7.794,103.500 L10.392,102.000 L7.794,100.500 L5.196,102.000ZM12.990,103.500 L15.588,102.000 L12.990,100.500 L10.392,102.000ZM18.187,103.500 L20.785,102.000 L18.187,100.500 L15.588,102.000ZM23.383,103.500 L25.981,102.000 L23.383,100.500 L20.785,102.000ZM28.579,103.500 L31.177,102.000 L28.579,100.500 L25.981,102.000ZM33.775,103.500 L36.373,102.000 L33.775,100.500 L31.177,102.000ZM38.971,103.500 L41.569,102.000 L38.971,100.500 L36.373,102.000ZM44.167,103.500 L46.765,102.000 L44.167,100.500 L41.569,102.000ZM49.363,103.500 L51.962,102.000 L49.363,100.500 L46.765,102.000ZM54.560,103.500 L57.158,102.000 L54.560,100.500 L51.962,102.000ZM-10.392,108.000 L-7.794,106.500 L-10.392,105.000 L-12.990,106.500ZM-5.196,108.000 L-2.598,106.500 L-5.196,105.000 L-7.794,106.500ZM0.000,108.000 L2.598,106.500 L0.000,105.000 L-2.598,106.500ZM5.196,108.000 L7.794,106.500 L5.196,105.000 L2.598,106.500ZM10.392,108.000 L12.990,106.500 L10.392,105.000 L7.794,106.500ZM15.588,108.000 L18.187,106.500 L15.588,105.000 L12.990,106.500ZM20.785,108.000 L23.383,106.500 L20.785,105.000 L18.187,106.500ZM25.981,108.000 L28.579,106.500 L25.981,105.000 L23.383,106.500ZM31.177,108.000 L33.775,106.500 L31.177,105.000 L28.579,106.500ZM36.373,108.000 L38.971,106.500 L36.373,105.000 L33.775,106.500ZM41.569,108.000 L44.167,106.500 L41.569,105.000 L38.971,106.500ZM46.765,108.000 L49.363,106.500 L46.765,105.000 L44.167,106.500ZM51.962,108.000 L54.560,106.500 L51.962,105.000 L49.363,106.500ZM-7.794,112.500 L-5.196,111.000 L-7.794,109.500 L-10.392,111.000ZM-2.598,112.500 L0.000,111.000 L-2.598,109.500 L-5.196,111.000ZM2.598,112.500 L5.196,111.000 L2.598,109.500 L0.000,111.000ZM7.794,112.500 L10.392,111.000 L7.794,109.500 L5.196,111.000ZM12.990,112.500 L15.588,111.000 L12.990,109.500 L10.392,111.000ZM18.187,112.500 L20.785,111.000 L18.187,109.500 L15.588,111.000ZM23.383,112.500 L25.981,111.000 L23.383,109.500 L20.785,111.000ZM28.579,112.500 L31.177,111.000 L28.579,109.500 L25.981,111.000ZM33.775,112.500 L36.373,111.000 L33.775,109.500 L31.177,111.000ZM38.971,112.500 L41.569,111.000 L38.971,109.500 L36.373,111.000ZM44.167,112.500 L46.765,111.000 L44.167,109.500 L41.569,111.000ZM49.363,112.500 L51.962,111.000 L49.363,109.500 L46.765,111.000ZM54.560,112.500 L57.158,111.000 L54.560,109.500 L51.962,111.000ZM-10.392,117.000 L-7.794,115.500 L-10.392,114.000 L-12.990,115.500ZM-5.196,117.000 L-2.598,115.500 L-5.196,114.000 L-7.794,115.500ZM0.000,117.000 L2.598,115.500 L0.000,114.000 L-2.598,115.500ZM5.196,117.000 L7.794,115.500 L5.196,114.000 L2.598,115.500ZM10.392,117.000 L12.990,115.500 L10.392,114.000 L7.794,115.500ZM15.588,117.000 L18.187,115.500 L15.588,114.000 L12.990,115.500ZM20.785,117.000 L23.383,115.500 L20.785,114.000 L18.187,115.500ZM25.981,117.000 L28.579,115.500 L25.981,114.000 L23.383,115.500ZM31.177,117.000 L33.775,115.500 L31.177,114.000 L28.579,115.500ZM36.373,117.000 L38.971,115.500 L36.373,114.000 L33.775,115.500ZM41.569,117.000 L44.167,115.500 L41.569,114.000 L38.971,115.500ZM46.765,117.000 L49.363,115.500 L46.765,114.000 L44.167,115.500ZM51.962,117.000 L54.560,115.500 L51.962,114.000 L49.363,115.500ZM-7.794,121.500 L-5.196,120.000 L-7.794,118.500 L-10.392,120.000ZM-2.598,121.500 L0.000,120.000 L-2.598,118.500 L-5.196,120.000ZM2.598,121.500 L5.196,120.000 L2.598,118.500 L0.000,120.000ZM7.794,121.500 L10.392,120.000 L7.794,118.500 L5.196,120.000ZM12.990,121.500 L15.588,120.000 L12.990,118.500 L10.392,120.000ZM18.187,121.500 L20.785,120.000 L18.187,118.500 L15.588,120.000ZM23.383,121.500 L25.981,120.000 L23.383,118.500 L20.785,120.000ZM28.579,121.500 L31.177,120.000 L28.579,118.500 L25.981,120.000ZM33.775,121.500 L36.373,120.000 L33.775,118.500 L31.177,120.000ZM38.971,121.500 L41.569,120.000 L38.971,118.500 L36.373,120.000ZM44.167,121.500 L46.765,120.000 L44.167,118.500 L41.569,120.000ZM49.363,121.500 L51.962,120.000 L49.363,118.500 L46.765,120.000ZM54.560,121.500 L57.158,120.000 L54.560,118.500 L51.962,120.000ZM-10.392,126.000 L-7.794,124.500 L-10.392,123.000 L-12.990,124.500ZM-5.196,126.000 L-2.598,124.500 L-5.196,123.000 L-7.794,124.500ZM0.000,126.000 L2.598,124.500 L0.000,123.000 L-2.598,124.500ZM5.196,126.000 L7.794,124.500 L5.196,123.000 L2.598,124.500ZM10.392,126.000 L12.990,124.500 L10.392,123.000 L7.794,124.500ZM15.588,126.000 L18.187,124.500 L15.588,123.000 L12.990,124.500ZM20.785,126.000 L23.383,124.500 L20.785,123.000 L18.187,124.500ZM25.981,126.000 L28.579,124.500 L25.981,123.000 L23.383,124.500ZM31.177,126.000 L33.775,124.500 L31.177,123.000 L28.579,124.500ZM36.373,126.000 L38.971,124.500 L36.373,123.000 L33.775,124.500ZM41.569,126.000 L44.167,124.500 L41.569,123.000 L38.971,124.500ZM46.765,126.000 L49.363,124.500 L46.765,123.000 L44.167,124.500ZM51.962,126.000 L54.560,124.500 L51.962,123.000 L49.363,124.500ZM-7.794,130.500 L-5.196,129.000 L-7.794,127.500 L-10.392,129.000ZM-2.598,130.500 L0.000,129.000 L-2.598,127.500 L-5.196,129.000ZM2.598,130.500 L5.196,129.000 L2.598,127.500 L0.000,129.000ZM7.794,130.500 L10.392,129.000 L7.794,127.500 L5.196,129.000ZM12.990,130.500 L15.588,129.000 L12.990,127.500 L10.392,129.000ZM18.187,130.500 L20.785,129.000 L18.187,127.500 L15.588,129.000ZM23.383,130.500 L25.981,129.000 L23.383,127.500 L20.785,129.000ZM28.579,130.500 L31.177,129.000 L28.579,127.500 L25.981,129.000ZM33.775,130.500 L36.373,129.000 L33.775,127.500 L31.177,129.000ZM38.971,130.500 L41.569,129.000 L38.971,127.500 L36.373,129.000ZM44.167,130.500 L46.765,129.000 L44.167,127.500 L41.569,129.000ZM49.363,130.500 L51.962,129.000 L49.363,127.500 L46.765,129.000ZM54.560,130.500 L57.158,129.000 L54.560,127.500 L51.962,129.000ZM-10.392,135.000 L-7.794,133.500 L-10.392,132.000 L-12.990,133.500ZM-5.196,135.000 L-2.598,133.500 L-5.196,132.000 L-7.794,133.500ZM0.000,135.000 L2.598,133.500 L0.000,132.000 L-2.598,133.500ZM5.196,135.000 L7.794,133.500 L5.196,132.000 L2.598,133.500ZM10.392,135.000 L12.990,133.500 L10.392,132.000 L7.794,133.500ZM15.588,135.000 L18.187,133.500 L15.588,132.000 L12.990,133.500ZM20.785,135.000 L23.383,133.500 L20.785,132.000 L18.187,133.500ZM25.981,135.000 L28.579,133.500 L25.981,132.000 L23.383,133.500ZM31.177,135.000 L33.775,133.500 L31.177,132.000 L28.579,133.500ZM36.373,135.000 L38.971,133.500 L36.373,132.000 L33.775,133.500ZM41.569,135.000 L44.167,133.500 L41.569,132.000 L38.971,133.500ZM46.765,135.000 L49.363,133.500 L46.765,132.000 L44.167,133.500ZM51.962,135.000 L54.560,133.500 L51.962,132.000 L49.363,133.500ZM-7.794,139.500 L-5.196,138.000 L-7.794,136.500 L-10.392,138.000ZM-2.598,139.500 L0.000,138.000 L-2.598,136.500 L-5.196,138.000ZM2.598,139.500 L5.196,138.000 L2.598,136.500 L0.000,138.000ZM7.794,139.500 L10.392,138.000 L7.794,136.500 L5.196,138.000ZM12.990,139.500 L15.588,138.000 L12.990,136.500 L10.392,138.000ZM18.187,139.500 L20.785,138.000 L18.187,136.500 L15.588,138.000ZM23.383,139.500 L25.981,138.000 L23.383,136.500 L20.785,138.000ZM28.579,139.500 L31.177,138.000 L28.579,136.500 L25.981,138.000ZM33.775,139.500 L36.373,138.000 L33.775,136.500 L31.177,138.000ZM38.971,139.500 L41.569,138.000 L38.971,136.500 L36.373,138.000ZM44.167,139.500 L46.765,138.000 L44.167,136.500 L41.569,138.000ZM49.363,139.500 L51.962,138.000 L49.363,136.500 L46.765,138.000ZM54.560,139.500 L57.158,138.000 L54.560,136.500 L51.962,138.000ZM-10.392,144.000 L-7.794,142.500 L-10.392,141.000 L-12.990,142.500ZM-5.196,144.000 L-2.598,142.500 L-5.196,141.000 L-7.794,142.500ZM0.000,144.000 L2.598,142.500 L0.000,141.000 L-2.598,142.500ZM5.196,144.000 L7.794,142.500 L5.196,141.000 L2.598,142.500ZM10.392,144.000 L12.990,142.500 L10.392,141.000 L7.794,142.500ZM15.588,144.000 L18.187,142.500 L15.588,141.000 L12.990,142.500ZM20.785,144.000 L23.383,142.500 L20.785,141.000 L18.187,142.500ZM25.981,144.000 L28.579,142.500 L25.981,141.000 L23.383,142.500ZM31.177,144.000 L33.775,142.500 L31.177,141.000 L28.579,142.500ZM36.373,144.000 L38.971,142.500 L36.373,141.000 L33.775,142.500ZM41.569,144.000 L44.167,142.500 L41.569,141.000 L38.971,142.500ZM46.765,144.000 L49.363,142.500 L46.765,141.000 L44.167,142.500ZM51.962,144.000 L54.560,142.500 L51.962,141.000 L49.363,142.500ZM-7.794,148.500 L-5.196,147.000 L-7.794,145.500 L-10.392,147.000ZM-2.598,148.500 L0.000,147.000 L-2.598,145.500 L-5.196,147.000ZM2.598,148.500 L5.196,147.000 L2.598,145.500 L0.000,147.000ZM7.794,148.500 L10.392,147.000 L7.794,145.500 L5.196,147.000ZM12.990,148.500 L15.588,147.000 L12.990,145.500 L10.392,147.000ZM18.187,148.500 L20.785,147.000 L18.187,145.500 L15.588,147.000ZM23.383,148.500 L25.981,147.000 L23.383,145.500 L20.785,147.000ZM28.579,148.500 L31.177,147.000 L28.579,145.500 L25.981,147.000ZM33.775,148.500 L36.373,147.000 L33.775,145.500 L31.177,147.000ZM38.971,148.500 L41.569,147.000 L38.971,145.500 L36.373,147.000ZM44.167,148.500 L46.765,147.000 L44.167,145.500 L41.569,147.000ZM49.363,148.500 L51.962,147.000 L49.363,145.500 L46.765,147.000ZM54.560,148.500 L57.158,147.000 L54.560,145.500 L51.962,147.000ZM-10.392,153.000 L-7.794,151.500 L-10.392,150.000 L-12.990,151.500ZM-5.196,153.000 L-2.598,151.500 L-5.196,150.000 L-7.794,151.500ZM0.000,153.000 L2.598,151.500 L0.000,150.000 L-2.598,151.500ZM5.196,153.000 L7.794,151.500 L5.196,150.000 L2.598,151.500ZM10.392,153.000 L12.990,151.500 L10.392,150.000 L7.794,151.500ZM15.588,153.000 L18.187,151.500 L15.588,150.000 L12.990,151.500ZM20.785,153.000 L23.383,151.500 L20.785,150.000 L18.187,151.500ZM25.981,153.000 L28.579,151.500 L25.981,150.000 L23.383,151.500ZM31.177,153.000 L33.775,151.500 L31.177,150.000 L28.579,151.500ZM36.373,153.000 L38.971,151.500 L36.373,150.000 L33.775,151.500ZM41.569,153.000 L44.167,151.500 L41.569,150.000 L38.971,151.500ZM46.765,153.000 L49.363,151.500 L46.765,150.000 L44.167,151.500ZM51.962,153.000 L54.560,151.500 L51.962,150.000 L49.363,151.500ZM-7.794,157.500 L-5.196,156.000 L-7.794,154.500 L-10.392,156.000ZM-2.598,157.500 L0.000,156.000 L-2.598,154.500 L-5.196,156.000ZM2.598,157.500 L5.196,156.000 L2.598,154.500 L0.000,156.000ZM7.794,157.500 L10.392,156.000 L7.794,154.500 L5.196,156.000ZM12.990,157.500 L15.588,156.000 L12.990,154.500 L10.392,156.000ZM18.187,157.500 L20.785,156.000 L18.187,154.500 L15.588,156.000ZM23.383,157.500 L25.981,156.000 L23.383,154.500 L20.785,156.000ZM28.579,157.500 L31.177,156.000 L28.579,154.500 L25.981,156.000ZM33.775,157.500 L36.373,156.000 L33.775,154.500 L31.177,156.000ZM38.971,157.500 L41.569,156.000 L38.971,154.500 L36.373,156.000ZM44.167,157.500 L46.765,156.000 L44.167,154.500 L41.569,156.000ZM49.363,157.500 L51.962,156.000 L49.363,154.500 L46.765,156.000ZM54.560,157.500 L57.158,156.000 L54.560,154.500 L51.962,156.000ZM-10.392,162.000 L-7.794,160.500 L-10.392,159.000 L-12.990,160.500ZM-5.196,162.000 L-2.598,160.500 L-5.196,159.000 L-7.794,160.500ZM0.000,162.000 L2.598,160.500 L0.000,159.000 L-2.598,160.500ZM5.196,162.000 L7.794,160.500 L5.196,159.000 L2.598,160.500ZM10.392,162.000 L12.990,160.500 L10.392,159.000 L7.794,160.500ZM15.588,162.000 L18.187,160.500 L15.588,159.000 L12.990,160.500ZM20.785,162.000 L23.383,160.500 L20.785,159.000 L18.187,160.500ZM25.981,162.000 L28.579,160.500 L25.981,159.000 L23.383,160.500ZM31.177,162.000 L33.775,160.500 L31.177,159.000 L28.579,160.500ZM36.373,162.000 L38.971,160.500 L36.373,159.000 L33.775,160.500ZM41.569,162.000 L44.167,160.500 L41.569,159.000 L38.971,160.500ZM46.765,162.000 L49.363,160.500 L46.765,159.000 L44.167,160.500ZM51.962,162.000 L54.560,160.500 L51.962,159.000 L49.363,160.500ZM-7.794,166.500 L-5.196,165.000 L-7.794,163.500 L-10.392,165.000ZM-2.598,166.500 L0.000,165.000 L-2.598,163.500 L-5.196,165.000ZM2.598,166.500 L5.196,165.000 L2.598,163.500 L0.000,165.000ZM7.794,166.500 L10.392,165.000 L7.794,163.500 L5.196,165.000ZM12.990,166.500 L15.588,165.000 L12.990,163.500 L10.392,165.000ZM18.187,166.500 L20.785,165.000 L18.187,163.500 L15.588,165.000ZM23.383,166.500 L25.981,165.000 L23.383,163.500 L20.785,165.000ZM28.579,166.500 L31.177,165.000 L28.579,163.500 L25.981,165.000ZM33.775,166.500 L36.373,165.000 L33.775,163.500 L31.177,165.000ZM38.971,166.500 L41.569,165.000 L38.971,163.500 L36.373,165.000ZM44.167,166.500 L46.765,165.000 L44.167,163.500 L41.569,165.000ZM49.363,166.500 L51.962,165.000 L49.363,163.500 L46.765,165.000ZM54.560,166.500 L57.158,165.000 L54.560,163.500 L51.962,165.000ZM-10.392,171.000 L-7.794,169.500 L-10.392,168.000 L-12.990,169.500ZM-5.196,171.000 L-2.598,169.500 L-5.196,168.000 L-7.794,169.500ZM0.000,171.000 L2.598,169.500 L0.000,168.000 L-2.598,169.500ZM5.196,171.000 L7.794,169.500 L5.196,168.000 L2.598,169.500ZM10.392,171.000 L12.990,169.500 L10.392,168.000 L7.794,169.500ZM15.588,171.000 L18.187,169.500 L15.588,168.000 L12.990,169.500ZM20.785,171.000 L23.383,169.500 L20.785,168.000 L18.187,169.500ZM25.981,171.000 L28.579,169.500 L25.981,168.000 L23.383,169.500ZM31.177,171.000 L33.775,169.500 L31.177,168.000 L28.579,169.500ZM36.373,171.000 L38.971,169.500 L36.373,168.000 L33.775,169.500ZM41.569,171.000 L44.167,169.500 L41.569,168.000 L38.971,169.500ZM46.765,171.000 L49.363,169.500 L46.765,168.000 L44.167,169.500ZM51.962,171.000 L54.560,169.500 L51.962,168.000 L49.363,169.500ZM-7.794,175.500 L-5.196,174.000 L-7.794,172.500 L-10.392,174.000ZM-2.598,175.500 L0.000,174.000 L-2.598,172.500 L-5.196,174.000ZM2.598,175.500 L5.196,174.000 L2.598,172.500 L0.000,174.000ZM7.794,175.500 L10.392,174.000 L7.794,172.500 L5.196,174.000ZM12.990,175.500 L15.588,174.000 L12.990,172.500 L10.392,174.000ZM18.187,175.500 L20.785,174.000 L18.187,172.500 L15.588,174.000ZM23.383,175.500 L25.981,174.000 L23.383,172.500 L20.785,174.000ZM28.579,175.500 L31.177,174.000 L28.579,172.500 L25.981,174.000ZM33.775,175.500 L36.373,174.000 L33.775,172.500 L31.177,174.000ZM38.971,175.500 L41.569,174.000 L38.971,172.500 L36.373,174.000ZM44.167,175.500 L46.765,174.000 L44.167,172.500 L41.569,174.000ZM49.363,175.500 L51.962,174.000 L49.363,172.500 L46.765,174.000ZM54.560,175.500 L57.158,174.000 L54.560,172.500 L51.962,174.000ZM-10.392,180.000 L-7.794,178.500 L-10.392,177.000 L-12.990,178.500ZM-5.196,180.000 L-2.598,178.500 L-5.196,177.000 L-7.794,178.500ZM0.000,180.000 L2.598,178.500 L0.000,177.000 L-2.598,178.500ZM5.196,180.000 L7.794,178.500 L5.196,177.000 L2.598,178.500ZM10.392,180.000 L12.990,178.500 L10.392,177.000 L7.794,178.500ZM15.588,180.000 L18.187,178.500 L15.588,177.000 L12.990,178.500ZM20.785,180.000 L23.383,178.500 L20.785,177.000 L18.187,178.500ZM25.981,180.000 L28.579,178.500 L25.981,177.000 L23.383,178.500ZM31.177,180.000 L33.775,178.500 L31.177,177.000 L28.579,178.500ZM36.373,180.000 L38.971,178.500 L36.373,177.000 L33.775,178.500ZM41.569,180.000 L44.167,178.500 L41.569,177.000 L38.971,178.500ZM46.765,180.000 L49.363,178.500 L46.765,177.000 L44.167,178.500ZM51.962,180.000 L54.560,178.500 L51.962,177.000 L49.363,178.500ZM-7.794,184.500 L-5.196,183.000 L-7.794,181.500 L-10.392,183.000ZM-2.598,184.500 L0.000,183.000 L-2.598,181.500 L-5.196,183.000ZM2.598,184.500 L5.196,183.000 L2.598,181.500 L0.000,183.000ZM7.794,184.500 L10.392,183.000 L7.794,181.500 L5.196,183.000ZM12.990,184.500 L15.588,183.000 L12.990,181.500 L10.392,183.000ZM18.187,184.500 L20.785,183.000 L18.187,181.500 L15.588,183.000ZM23.383,184.500 L25.981,183.000 L23.383,181.500 L20.785,183.000ZM28.579,184.500 L31.177,183.000 L28.579,181.500 L25.981,183.000ZM33.775,184.500 L36.373,183.000 L33.775,181.500 L31.177,183.000ZM38.971,184.500 L41.569,183.000 L38.971,181.500 L36.373,183.000ZM44.167,184.500 L46.765,183.000 L44.167,181.500 L41.569,183.000ZM49.363,184.500 L51.962,183.000 L49.363,181.500 L46.765,183.000ZM54.560,184.500 L57.158,183.000 L54.560,181.500 L51.962,183.000ZM-10.392,189.000 L-7.794,187.500 L-10.392,186.000 L-12.990,187.500ZM-5.196,189.000 L-2.598,187.500 L-5.196,186.000 L-7.794,187.500ZM0.000,189.000 L2.598,187.500 L0.000,186.000 L-2.598,187.500ZM5.196,189.000 L7.794,187.500 L5.196,186.000 L2.598,187.500ZM10.392,189.000 L12.990,187.500 L10.392,186.000 L7.794,187.500ZM15.588,189.000 L18.187,187.500 L15.588,186.000 L12.990,187.500ZM20.785,189.000 L23.383,187.500 L20.785,186.000 L18.187,187.500ZM25.981,189.000 L28.579,187.500 L25.981,186.000 L23.383,187.500ZM31.177,189.000 L33.775,187.500 L31.177,186.000 L28.579,187.500ZM36.373,189.000 L38.971,187.500 L36.373,186.000 L33.775,187.500ZM41.569,189.000 L44.167,187.500 L41.569,186.000 L38.971,187.500ZM46.765,189.000 L49.363,187.500 L46.765,186.000 L44.167,187.500ZM51.962,189.000 L54.560,187.500 L51.962,186.000 L49.363,187.500ZM-7.794,193.500 L-5.196,192.000 L-7.794,190.500 L-10.392,192.000ZM-2.598,193.500 L0.000,192.000 L-2.598,190.500 L-5.196,192.000ZM2.598,193.500 L5.196,192.000 L2.598,190.500 L0.000,192.000ZM7.794,193.500 L10.392,192.000 L7.794,190.500 L5.196,192.000ZM12.990,193.500 L15.588,192.000 L12.990,190.500 L10.392,192.000ZM18.187,193.500 L20.785,192.000 L18.187,190.500 L15.588,192.000ZM23.383,193.500 L25.981,192.000 L23.383,190.500 L20.785,192.000ZM28.579,193.500 L31.177,192.000 L28.579,190.500 L25.981,192.000ZM33.775,193.500 L36.373,192.000 L33.775,190.500 L31.177,192.000ZM38.971,193.500 L41.569,192.000 L38.971,190.500 L36.373,192.000ZM44.167,193.500 L46.765,192.000 L44.167,190.500 L41.569,192.000ZM49.363,193.500 L51.962,192.000 L49.363,190.500 L46.765,192.000ZM54.560,193.500 L57.158,192.000 L54.560,190.500 L51.962,192.000ZM-10.392,198.000 L-7.794,196.500 L-10.392,195.000 L-12.990,196.500ZM-5.196,198.000 L-2.598,196.500 L-5.196,195.000 L-7.794,196.500ZM0.000,198.000 L2.598,196.500 L0.000,195.000 L-2.598,196.500ZM5.196,198.000 L7.794,196.500 L5.196,195.000 L2.598,196.500ZM10.392,198.000 L12.990,196.500 L10.392,195.000 L7.794,196.500ZM15.588,198.000 L18.187,196.500 L15.588,195.000 L12.990,196.500ZM20.785,198.000 L23.383,196.500 L20.785,195.000 L18.187,196.500ZM25.981,198.000 L28.579,196.500 L25.981,195.000 L23.383,196.500ZM31.177,198.000 L33.775,196.500 L31.177,195.000 L28.579,196.500ZM36.373,198.000 L38.971,196.500 L36.373,195.000 L33.775,196.500ZM41.569,198.000 L44.167,196.500 L41.569,195.000 L38.971,196.500ZM46.765,198.000 L49.363,196.500 L46.765,195.000 L44.167,196.500ZM51.962,198.000 L54.560,196.500 L51.962,195.000 L49.363,196.500ZM-7.794,202.500 L-5.196,201.000 L-7.794,199.500 L-10.392,201.000ZM-2.598,202.500 L0.000,201.000 L-2.598,199.500 L-5.196,201.000ZM2.598,202.500 L5.196,201.000 L2.598,199.500 L0.000,201.000ZM7.794,202.500 L10.392,201.000 L7.794,199.500 L5.196,201.000ZM12.990,202.500 L15.588,201.000 L12.990,199.500 L10.392,201.000ZM18.187,202.500 L20.785,201.000 L18.187,199.500 L15.588,201.000ZM23.383,202.500 L25.981,201.000 L23.383,199.500 L20.785,201.000ZM28.579,202.500 L31.177,201.000 L28.579,199.500 L25.981,201.000ZM33.775,202.500 L36.373,201.000 L33.775,199.500 L31.177,201.000ZM38.971,202.500 L41.569,201.000 L38.971,199.500 L36.373,201.000ZM44.167,202.500 L46.765,201.000 L44.167,199.500 L41.569,201.000ZM49.363,202.500 L51.962,201.000 L49.363,199.500 L46.765,201.000ZM54.560,202.500 L57.158,201.000 L54.560,199.500 L51.962,201.000ZM-10.392,207.000 L-7.794,205.500 L-10.392,204.000 L-12.990,205.500ZM-5.196,207.000 L-2.598,205.500 L-5.196,204.000 L-7.794,205.500ZM0.000,207.000 L2.598,205.500 L0.000,204.000 L-2.598,205.500ZM5.196,207.000 L7.794,205.500 L5.196,204.000 L2.598,205.500ZM10.392,207.000 L12.990,205.500 L10.392,204.000 L7.794,205.500ZM15.588,207.000 L18.187,205.500 L15.588,204.000 L12.990,205.500ZM20.785,207.000 L23.383,205.500 L20.785,204.000 L18.187,205.500ZM25.981,207.000 L28.579,205.500 L25.981,204.000 L23.383,205.500ZM31.177,207.000 L33.775,205.500 L31.177,204.000 L28.579,205.500ZM36.373,207.000 L38.971,205.500 L36.373,204.000 L33.775,205.500ZM41.569,207.000 L44.167,205.500 L41.569,204.000 L38.971,205.500ZM46.765,207.000 L49.363,205.500 L46.765,204.000 L44.167,205.500ZM51.962,207.000 L54.560,205.500 L51.962,204.000 L49.363,205.500ZM-7.794,211.500 L-5.196,210.000 L-7.794,208.500 L-10.392,210.000ZM-2.598,211.500 L0.000,210.000 L-2.598,208.500 L-5.196,210.000ZM2.598,211.500 L5.196,210.000 L2.598,208.500 L0.000,210.000ZM7.794,211.500 L10.392,210.000 L7.794,208.500 L5.196,210.000ZM12.990,211.500 L15.588,210.000 L12.990,208.500 L10.392,210.000ZM18.187,211.500 L20.785,210.000 L18.187,208.500 L15.588,210.000ZM23.383,211.500 L25.981,210.000 L23.383,208.500 L20.785,210.000ZM28.579,211.500 L31.177,210.000 L28.579,208.500 L25.981,210.000ZM33.775,211.500 L36.373,210.000 L33.775,208.500 L31.177,210.000ZM38.971,211.500 L41.569,210.000 L38.971,208.500 L36.373,210.000ZM44.167,211.500 L46.765,210.000 L44.167,208.500 L41.569,210.000ZM49.363,211.500 L51.962,210.000 L49.363,208.500 L46.765,210.000ZM54.560,211.500 L57.158,210.000 L54.560,208.500 L51.962,210.000ZM-10.392,216.000 L-7.794,214.500 L-10.392,213.000 L-12.990,214.500ZM-5.196,216.000 L-2.598,214.500 L-5.196,213.000 L-7.794,214.500ZM0.000,216.000 L2.598,214.500 L0.000,213.000 L-2.598,214.500ZM5.196,216.000 L7.794,214.500 L5.196,213.000 L2.598,214.500ZM10.392,216.000 L12.990,214.500 L10.392,213.000 L7.794,214.500ZM15.588,216.000 L18.187,214.500 L15.588,213.000 L12.990,214.500ZM20.785,216.000 L23.383,214.500 L20.785,213.000 L18.187,214.500ZM25.981,216.000 L28.579,214.500 L25.981,213.000 L23.383,214.500ZM31.177,216.000 L33.775,214.500 L31.177,213.000 L28.579,214.500ZM36.373,216.000 L38.971,214.500 L36.373,213.000 L33.775,214.500ZM41.569,216.000 L44.167,214.500 L41.569,213.000 L38.971,214.500ZM46.765,216.000 L49.363,214.500 L46.765,213.000 L44.167,214.500ZM51.962,216.000 L54.560,214.500 L51.962,213.000 L49.363,214.500ZM-7.794,220.500 L-5.196,219.000 L-7.794,217.500 L-10.392,219.000ZM-2.598,220.500 L0.000,219.000 L-2.598,217.500 L-5.196,219.000ZM2.598,220.500 L5.196,219.000 L2.598,217.500 L0.000,219.000ZM7.794,220.500 L10.392,219.000 L7.794,217.500 L5.196,219.000ZM12.990,220.500 L15.588,219.000 L12.990,217.500 L10.392,219.000ZM18.187,220.500 L20.785,219.000 L18.187,217.500 L15.588,219.000ZM23.383,220.500 L25.981,219.000 L23.383,217.500 L20.785,219.000ZM28.579,220.500 L31.177,219.000 L28.579,217.500 L25.981,219.000ZM33.775,220.500 L36.373,219.000 L33.775,217.500 L31.177,219.000ZM38.971,220.500 L41.569,219.000 L38.971,217.500 L36.373,219.000ZM44.167,220.500 L46.765,219.000 L44.167,217.500 L41.569,219.000ZM49.363,220.500 L51.962,219.000 L49.363,217.500 L46.765,219.000ZM54.560,220.500 L57.158,219.000 L54.560,217.500 L51.962,219.000ZM-10.392,225.000 L-7.794,223.500 L-10.392,222.000 L-12.990,223.500ZM-5.196,225.000 L-2.598,223.500 L-5.196,222.000 L-7.794,223.500ZM0.000,225.000 L2.598,223.500 L0.000,222.000 L-2.598,223.500ZM5.196,225.000 L7.794,223.500 L5.196,222.000 L2.598,223.500ZM10.392,225.000 L12.990,223.500 L10.392,222.000 L7.794,223.500ZM15.588,225.000 L18.187,223.500 L15.588,222.000 L12.990,223.500ZM20.785,225.000 L23.383,223.500 L20.785,222.000 L18.187,223.500ZM25.981,225.000 L28.579,223.500 L25.981,222.000 L23.383,223.500ZM31.177,225.000 L33.775,223.500 L31.177,222.000 L28.579,223.500ZM36.373,225.000 L38.971,223.500 L36.373,222.000 L33.775,223.500ZM41.569,225.000 L44.167,223.500 L41.569,222.000 L38.971,223.500ZM46.765,225.000 L49.363,223.500 L46.765,222.000 L44.167,223.500ZM51.962,225.000 L54.560,223.500 L51.962,222.000 L49.363,223.500ZM-7.794,229.500 L-5.196,228.000 L-7.794,226.500 L-10.392,228.000ZM-2.598,229.500 L0.000,228.000 L-2.598,226.500 L-5.196,228.000ZM2.598,229.500 L5.196,228.000 L2.598,226.500 L0.000,228.000ZM7.794,229.500 L10.392,228.000 L7.794,226.500 L5.196,228.000ZM12.990,229.500 L15.588,228.000 L12.990,226.500 L10.392,228.000ZM18.187,229.500 L20.785,228.000 L18.187,226.500 L15.588,228.000ZM23.383,229.500 L25.981,228.000 L23.383,226.500 L20.785,228.000ZM28.579,229.500 L31.177,228.000 L28.579,226.500 L25.981,228.000ZM33.775,229.500 L36.373,228.000 L33.775,226.500 L31.177,228.000ZM38.971,229.500 L41.569,228.000 L38.971,226.500 L36.373,228.000ZM44.167,229.500 L46.765,228.000 L44.167,226.500 L41.569,228.000ZM49.363,229.500 L51.962,228.000 L49.363,226.500 L46.765,228.000ZM54.560,229.500 L57.158,228.000 L54.560,226.500 L51.962,228.000ZM-10.392,234.000 L-7.794,232.500 L-10.392,231.000 L-12.990,232.500ZM-5.196,234.000 L-2.598,232.500 L-5.196,231.000 L-7.794,232.500ZM0.000,234.000 L2.598,232.500 L0.000,231.000 L-2.598,232.500ZM5.196,234.000 L7.794,232.500 L5.196,231.000 L2.598,232.500ZM10.392,234.000 L12.990,232.500 L10.392,231.000 L7.794,232.500ZM15.588,234.000 L18.187,232.500 L15.588,231.000 L12.990,232.500ZM20.785,234.000 L23.383,232.500 L20.785,231.000 L18.187,232.500ZM25.981,234.000 L28.579,232.500 L25.981,231.000 L23.383,232.500ZM31.177,234.000 L33.775,232.500 L31.177,231.000 L28.579,232.500ZM36.373,234.000 L38.971,232.500 L36.373,231.000 L33.775,232.500ZM41.569,234.000 L44.167,232.500 L41.569,231.000 L38.971,232.500ZM46.765,234.000 L49.363,232.500 L46.765,231.000 L44.167,232.500ZM51.962,234.000 L54.560,232.500 L51.962,231.000 L49.363,232.500ZM-7.794,238.500 L-5.196,237.000 L-7.794,235.500 L-10.392,237.000ZM-2.598,238.500 L0.000,237.000 L-2.598,235.500 L-5.196,237.000ZM2.598,238.500 L5.196,237.000 L2.598,235.500 L0.000,237.000ZM7.794,238.500 L10.392,237.000 L7.794,235.500 L5.196,237.000ZM12.990,238.500 L15.588,237.000 L12.990,235.500 L10.392,237.000ZM18.187,238.500 L20.785,237.000 L18.187,235.500 L15.588,237.000ZM23.383,238.500 L25.981,237.000 L23.383,235.500 L20.785,237.000ZM28.579,238.500 L31.177,237.000 L28.579,235.500 L25.981,237.000ZM33.775,238.500 L36.373,237.000 L33.775,235.500 L31.177,237.000ZM38.971,238.500 L41.569,237.000 L38.971,235.500 L36.373,237.000ZM44.167,238.500 L46.765,237.000 L44.167,235.500 L41.569,237.000ZM49.363,238.500 L51.962,237.000 L49.363,235.500 L46.765,237.000ZM54.560,238.500 L57.158,237.000 L54.560,235.500 L51.962,237.000ZM-10.392,243.000 L-7.794,241.500 L-10.392,240.000 L-12.990,241.500ZM-5.196,243.000 L-2.598,241.500 L-5.196,240.000 L-7.794,241.500ZM0.000,243.000 L2.598,241.500 L0.000,240.000 L-2.598,241.500ZM5.196,243.000 L7.794,241.500 L5.196,240.000 L2.598,241.500ZM10.392,243.000 L12.990,241.500 L10.392,240.000 L7.794,241.500ZM15.588,243.000 L18.187,241.500 L15.588,240.000 L12.990,241.500ZM20.785,243.000 L23.383,241.500 L20.785,240.000 L18.187,241.500ZM25.981,243.000 L28.579,241.500 L25.981,240.000 L23.383,241.500ZM31.177,243.000 L33.775,241.500 L31.177,240.000 L28.579,241.500ZM36.373,243.000 L38.971,241.500 L36.373,240.000 L33.775,241.500ZM41.569,243.000 L44.167,241.500 L41.569,240.000 L38.971,241.500ZM46.765,243.000 L49.363,241.500 L46.765,240.000 L44.167,241.500ZM51.962,243.000 L54.560,241.500 L51.962,240.000 L49.363,241.500ZM-7.794,247.500 L-5.196,246.000 L-7.794,244.500 L-10.392,246.000ZM-2.598,247.500 L0.000,246.000 L-2.598,244.500 L-5.196,246.000ZM2.598,247.500 L5.196,246.000 L2.598,244.500 L0.000,246.000ZM7.794,247.500 L10.392,246.000 L7.794,244.500 L5.196,246.000ZM12.990,247.500 L15.588,246.000 L12.990,244.500 L10.392,246.000ZM18.187,247.500 L20.785,246.000 L18.187,244.500 L15.588,246.000ZM23.383,247.500 L25.981,246.000 L23.383,244.500 L20.785,246.000ZM28.579,247.500 L31.177,246.000 L28.579,244.500 L25.981,246.000ZM33.775,247.500 L36.373,246.000 L33.775,244.500 L31.177,246.000ZM38.971,247.500 L41.569,246.000 L38.971,244.500 L36.373,246.000ZM44.167,247.500 L46.765,246.000 L44.167,244.500 L41.569,246.000ZM49.363,247.500 L51.962,246.000 L49.363,244.500 L46.765,246.000ZM54.560,247.500 L57.158,246.000 L54.560,244.500 L51.962,246.000ZM-10.392,252.000 L-7.794,250.500 L-10.392,249.000 L-12.990,250.500ZM-5.196,252.000 L-2.598,250.500 L-5.196,249.000 L-7.794,250.500ZM0.000,252.000 L2.598,250.500 L0.000,249.000 L-2.598,250.500ZM5.196,252.000 L7.794,250.500 L5.196,249.000 L2.598,250.500ZM10.392,252.000 L12.990,250.500 L10.392,249.000 L7.794,250.500ZM15.588,252.000 L18.187,250.500 L15.588,249.000 L12.990,250.500ZM20.785,252.000 L23.383,250.500 L20.785,249.000 L18.187,250.500ZM25.981,252.000 L28.579,250.500 L25.981,249.000 L23.383,250.500ZM31.177,252.000 L33.775,250.500 L31.177,249.000 L28.579,250.500ZM36.373,252.000 L38.971,250.500 L36.373,249.000 L33.775,250.500ZM41.569,252.000 L44.167,250.500 L41.569,249.000 L38.971,250.500ZM46.765,252.000 L49.363,250.500 L46.765,249.000 L44.167,250.500ZM51.962,252.000 L54.560,250.500 L51.962,249.000 L49.363,250.500ZM-7.794,256.500 L-5.196,255.000 L-7.794,253.500 L-10.392,255.000ZM-2.598,256.500 L0.000,255.000 L-2.598,253.500 L-5.196,255.000ZM2.598,256.500 L5.196,255.000 L2.598,253.500 L0.000,255.000ZM7.794,256.500 L10.392,255.000 L7.794,253.500 L5.196,255.000ZM12.990,256.500 L15.588,255.000 L12.990,253.500 L10.392,255.000ZM18.187,256.500 L20.785,255.000 L18.187,253.500 L15.588,255.000ZM23.383,256.500 L25.981,255.000 L23.383,253.500 L20.785,255.000ZM28.579,256.500 L31.177,255.000 L28.579,253.500 L25.981,255.000ZM33.775,256.500 L36.373,255.000 L33.775,253.500 L31.177,255.000ZM38.971,256.500 L41.569,255.000 L38.971,253.500 L36.373,255.000ZM44.167,256.500 L46.765,255.000 L44.167,253.500 L41.569,255.000ZM49.363,256.500 L51.962,255.000 L49.363,253.500 L46.765,255.000ZM54.560,256.500 L57.158,255.000 L54.560,253.500 L51.962,255.000ZM-10.392,261.000 L-7.794,259.500 L-10.392,258.000 L-12.990,259.500ZM-5.196,261.000 L-2.598,259.500 L-5.196,258.000 L-7.794,259.500ZM0.000,261.000 L2.598,259.500 L0.000,258.000 L-2.598,259.500ZM5.196,261.000 L7.794,259.500 L5.196,258.000 L2.598,259.500ZM10.392,261.000 L12.990,259.500 L10.392,258.000 L7.794,259.500ZM15.588,261.000 L18.187,259.500 L15.588,258.000 L12.990,259.500ZM20.785,261.000 L23.383,259.500 L20.785,258.000 L18.187,259.500ZM25.981,261.000 L28.579,259.500 L25.981,258.000 L23.383,259.500ZM31.177,261.000 L33.775,259.500 L31.177,258.000 L28.579,259.500ZM36.373,261.000 L38.971,259.500 L36.373,258.000 L33.775,259.500ZM41.569,261.000 L44.167,259.500 L41.569,258.000 L38.971,259.500ZM46.765,261.000 L49.363,259.500 L46.765,258.000 L44.167,259.500ZM51.962,261.000 L54.560,259.500 L51.962,258.000 L49.363,259.500ZM-7.794,265.500 L-5.196,264.000 L-7.794,262.500 L-10.392,264.000ZM-2.598,265.500 L0.000,264.000 L-2.598,262.500 L-5.196,264.000ZM2.598,265.500 L5.196,264.000 L2.598,262.500 L0.000,264.000ZM7.794,265.500 L10.392,264.000 L7.794,262.500 L5.196,264.000ZM12.990,265.500 L15.588,264.000 L12.990,262.500 L10.392,264.000ZM18.187,265.500 L20.785,264.000 L18.187,262.500 L15.588,264.000ZM23.383,265.500 L25.981,264.000 L23.383,262.500 L20.785,264.000ZM28.579,265.500 L31.177,264.000 L28.579,262.500 L25.981,264.000ZM33.775,265.500 L36.373,264.000 L33.775,262.500 L31.177,264.000ZM38.971,265.500 L41.569,264.000 L38.971,262.500 L36.373,264.000ZM44.167,265.500 L46.765,264.000 L44.167,262.500 L41.569,264.000ZM49.363,265.500 L51.962,264.000 L49.363,262.500 L46.765,264.000ZM54.560,265.500 L57.158,264.000 L54.560,262.500 L51.962,264.000ZM-10.392,270.000 L-7.794,268.500 L-10.392,267.000 L-12.990,268.500ZM-5.196,270.000 L-2.598,268.500 L-5.196,267.000 L-7.794,268.500ZM0.000,270.000 L2.598,268.500 L0.000,267.000 L-2.598,268.500ZM5.196,270.000 L7.794,268.500 L5.196,267.000 L2.598,268.500ZM10.392,270.000 L12.990,268.500 L10.392,267.000 L7.794,268.500ZM15.588,270.000 L18.187,268.500 L15.588,267.000 L12.990,268.500ZM20.785,270.000 L23.383,268.500 L20.785,267.000 L18.187,268.500ZM25.981,270.000 L28.579,268.500 L25.981,267.000 L23.383,268.500ZM31.177,270.000 L33.775,268.500 L31.177,267.000 L28.579,268.500ZM36.373,270.000 L38.971,268.500 L36.373,267.000 L33.775,268.500ZM41.569,270.000 L44.167,268.500 L41.569,267.000 L38.971,268.500ZM46.765,270.000 L49.363,268.500 L46.765,267.000 L44.167,268.500ZM51.962,270.000 L54.560,268.500 L51.962,267.000 L49.363,268.500ZM-7.794,274.500 L-5.196,273.000 L-7.794,271.500 L-10.392,273.000ZM-2.598,274.500 L0.000,273.000 L-2.598,271.500 L-5.196,273.000ZM2.598,274.500 L5.196,273.000 L2.598,271.500 L0.000,273.000ZM7.794,274.500 L10.392,273.000 L7.794,271.500 L5.196,273.000ZM12.990,274.500 L15.588,273.000 L12.990,271.500 L10.392,273.000ZM18.187,274.500 L20.785,273.000 L18.187,271.500 L15.588,273.000ZM23.383,274.500 L25.981,273.000 L23.383,271.500 L20.785,273.000ZM28.579,274.500 L31.177,273.000 L28.579,271.500 L25.981,273.000ZM33.775,274.500 L36.373,273.000 L33.775,271.500 L31.177,273.000ZM38.971,274.500 L41.569,273.000 L38.971,271.500 L36.373,273.000ZM44.167,274.500 L46.765,273.000 L44.167,271.500 L41.569,273.000ZM49.363,274.500 L51.962,273.000 L49.363,271.500 L46.765,273.000ZM54.560,274.500 L57.158,273.000 L54.560,271.500 L51.962,273.000ZM-10.392,279.000 L-7.794,277.500 L-10.392,276.000 L-12.990,277.500ZM-5.196,279.000 L-2.598,277.500 L-5.196,276.000 L-7.794,277.500ZM0.000,279.000 L2.598,277.500 L0.000,276.000 L-2.598,277.500ZM5.196,279.000 L7.794,277.500 L5.196,276.000 L2.598,277.500ZM10.392,279.000 L12.990,277.500 L10.392,276.000 L7.794,277.500ZM15.588,279.000 L18.187,277.500 L15.588,276.000 L12.990,277.500ZM20.785,279.000 L23.383,277.500 L20.785,276.000 L18.187,277.500ZM25.981,279.000 L28.579,277.500 L25.981,276.000 L23.383,277.500ZM31.177,279.000 L33.775,277.500 L31.177,276.000 L28.579,277.500ZM36.373,279.000 L38.971,277.500 L36.373,276.000 L33.775,277.500ZM41.569,279.000 L44.167,277.500 L41.569,276.000 L38.971,277.500ZM46.765,279.000 L49.363,277.500 L46.765,276.000 L44.167,277.500ZM51.962,279.000 L54.560,277.500 L51.962,276.000 L49.363,277.500ZM-7.794,283.500 L-5.196,282.000 L-7.794,280.500 L-10.392,282.000ZM-2.598,283.500 L0.000,282.000 L-2.598,280.500 L-5.196,282.000ZM2.598,283.500 L5.196,282.000 L2.598,280.500 L0.000,282.000ZM7.794,283.500 L10.392,282.000 L7.794,280.500 L5.196,282.000ZM12.990,283.500 L15.588,282.000 L12.990,280.500 L10.392,282.000ZM18.187,283.500 L20.785,282.000 L18.187,280.500 L15.588,282.000ZM23.383,283.500 L25.981,282.000 L23.383,280.500 L20.785,282.000ZM28.579,283.500 L31.177,282.000 L28.579,280.500 L25.981,282.000ZM33.775,283.500 L36.373,282.000 L33.775,280.500 L31.177,282.000ZM38.971,283.500 L41.569,282.000 L38.971,280.500 L36.373,282.000ZM44.167,283.500 L46.765,282.000 L44.167,280.500 L41.569,282.000ZM49.363,283.500 L51.962,282.000 L49.363,280.500 L46.765,282.000ZM54.560,283.500 L57.158,282.000 L54.560,280.500 L51.962,282.000ZM-10.392,288.000 L-7.794,286.500 L-10.392,285.000 L-12.990,286.500ZM-5.196,288.000 L-2.598,286.500 L-5.196,285.000 L-7.794,286.500ZM0.000,288.000 L2.598,286.500 L0.000,285.000 L-2.598,286.500ZM5.196,288.000 L7.794,286.500 L5.196,285.000 L2.598,286.500ZM10.392,288.000 L12.990,286.500 L10.392,285.000 L7.794,286.500ZM15.588,288.000 L18.187,286.500 L15.588,285.000 L12.990,286.500ZM20.785,288.000 L23.383,286.500 L20.785,285.000 L18.187,286.500ZM25.981,288.000 L28.579,286.500 L25.981,285.000 L23.383,286.500ZM31.177,288.000 L33.775,286.500 L31.177,285.000 L28.579,286.500ZM36.373,288.000 L38.971,286.500 L36.373,285.000 L33.775,286.500ZM41.569,288.000 L44.167,286.500 L41.569,285.000 L38.971,286.500ZM46.765,288.000 L49.363,286.500 L46.765,285.000 L44.167,286.500ZM51.962,288.000 L54.560,286.500 L51.962,285.000 L49.363,286.500ZM-7.794,292.500 L-5.196,291.000 L-7.794,289.500 L-10.392,291.000ZM-2.598,292.500 L0.000,291.000 L-2.598,289.500 L-5.196,291.000ZM2.598,292.500 L5.196,291.000 L2.598,289.500 L0.000,291.000ZM7.794,292.500 L10.392,291.000 L7.794,289.500 L5.196,291.000ZM12.990,292.500 L15.588,291.000 L12.990,289.500 L10.392,291.000ZM18.187,292.500 L20.785,291.000 L18.187,289.500 L15.588,291.000ZM23.383,292.500 L25.981,291.000 L23.383,289.500 L20.785,291.000ZM28.579,292.500 L31.177,291.000 L28.579,289.500 L25.981,291.000ZM33.775,292.500 L36.373,291.000 L33.775,289.500 L31.177,291.000ZM38.971,292.500 L41.569,291.000 L38.971,289.500 L36.373,291.000ZM44.167,292.500 L46.765,291.000 L44.167,289.500 L41.569,291.000ZM49.363,292.500 L51.962,291.000 L49.363,289.500 L46.765,291.000ZM54.560,292.500 L57.158,291.000 L54.560,289.500 L51.962,291.000ZM-10.392,297.000 L-7.794,295.500 L-10.392,294.000 L-12.990,295.500ZM-5.196,297.000 L-2.598,295.500 L-5.196,294.000 L-7.794,295.500ZM0.000,297.000 L2.598,295.500 L0.000,294.000 L-2.598,295.500ZM5.196,297.000 L7.794,295.500 L5.196,294.000 L2.598,295.500ZM10.392,297.000 L12.990,295.500 L10.392,294.000 L7.794,295.500ZM15.588,297.000 L18.187,295.500 L15.588,294.000 L12.990,295.500ZM20.785,297.000 L23.383,295.500 L20.785,294.000 L18.187,295.500ZM25.981,297.000 L28.579,295.500 L25.981,294.000 L23.383,295.500ZM31.177,297.000 L33.775,295.500 L31.177,294.000 L28.579,295.500ZM36.373,297.000 L38.971,295.500 L36.373,294.000 L33.775,295.500ZM41.569,297.000 L44.167,295.500 L41.569,294.000 L38.971,295.500ZM46.765,297.000 L49.363,295.500 L46.765,294.000 L44.167,295.500ZM51.962,297.000 L54.560,295.500 L51.962,294.000 L49.363,295.500ZM-7.794,301.500 L-5.196,300.000 L-7.794,298.500 L-10.392,300.000ZM-2.598,301.500 L0.000,300.000 L-2.598,298.500 L-5.196,300.000ZM2.598,301.500 L5.196,300.000 L2.598,298.500 L0.000,300.000ZM7.794,301.500 L10.392,300.000 L7.794,298.500 L5.196,300.000ZM12.990,301.500 L15.588,300.000 L12.990,298.500 L10.392,300.000ZM18.187,301.500 L20.785,300.000 L18.187,298.500 L15.588,300.000ZM23.383,301.500 L25.981,300.000 L23.383,298.500 L20.785,300.000ZM28.579,301.500 L31.177,300.000 L28.579,298.500 L25.981,300.000ZM33.775,301.500 L36.373,300.000 L33.775,298.500 L31.177,300.000ZM38.971,301.500 L41.569,300.000 L38.971,298.500 L36.373,300.000ZM44.167,301.500 L46.765,300.000 L44.167,298.500 L41.569,300.000ZM49.363,301.500 L51.962,300.000 L49.363,298.500 L46.765,300.000ZM54.560,301.500 L57.158,300.000 L54.560,298.500 L51.962,300.000ZM-10.392,306.000 L-7.794,304.500 L-10.392,303.000 L-12.990,304.500ZM-5.196,306.000 L-2.598,304.500 L-5.196,303.000 L-7.794,304.500ZM0.000,306.000 L2.598,304.500 L0.000,303.000 L-2.598,304.500ZM5.196,306.000 L7.794,304.500 L5.196,303.000 L2.598,304.500ZM10.392,306.000 L12.990,304.500 L10.392,303.000 L7.794,304.500ZM15.588,306.000 L18.187,304.500 L15.588,303.000 L12.990,304.500ZM20.785,306.000 L23.383,304.500 L20.785,303.000 L18.187,304.500ZM25.981,306.000 L28.579,304.500 L25.981,303.000 L23.383,304.500ZM31.177,306.000 L33.775,304.500 L31.177,303.000 L28.579,304.500ZM36.373,306.000 L38.971,304.500 L36.373,303.000 L33.775,304.500ZM41.569,306.000 L44.167,304.500 L41.569,303.000 L38.971,304.500ZM46.765,306.000 L49.363,304.500 L46.765,303.000 L44.167,304.500ZM51.962,306.000 L54.560,304.500 L51.962,303.000 L49.363,304.500ZM-7.794,310.500 L-5.196,309.000 L-7.794,307.500 L-10.392,309.000ZM-2.598,310.500 L0.000,309.000 L-2.598,307.500 L-5.196,309.000ZM2.598,310.500 L5.196,309.000 L2.598,307.500 L0.000,309.000ZM7.794,310.500 L10.392,309.000 L7.794,307.500 L5.196,309.000ZM12.990,310.500 L15.588,309.000 L12.990,307.500 L10.392,309.000ZM18.187,310.500 L20.785,309.000 L18.187,307.500 L15.588,309.000ZM23.383,310.500 L25.981,309.000 L23.383,307.500 L20.785,309.000ZM28.579,310.500 L31.177,309.000 L28.579,307.500 L25.981,309.000ZM33.775,310.500 L36.373,309.000 L33.775,307.500 L31.177,309.000ZM38.971,310.500 L41.569,309.000 L38.971,307.500 L36.373,309.000ZM44.167,310.500 L46.765,309.000 L44.167,307.500 L41.569,309.000ZM49.363,310.500 L51.962,309.000 L49.363,307.500 L46.765,309.000ZM54.560,310.500 L57.158,309.000 L54.560,307.500 L51.962,309.000ZM-10.392,315.000 L-7.794,313.500 L-10.392,312.000 L-12.990,313.500ZM-5.196,315.000 L-2.598,313.500 L-5.196,312.000 L-7.794,313.500ZM0.000,315.000 L2.598,313.500 L0.000,312.000 L-2.598,313.500ZM5.196,315.000 L7.794,313.500 L5.196,312.000 L2.598,313.500ZM10.392,315.000 L12.990,313.500 L10.392,312.000 L7.794,313.500ZM15.588,315.000 L18.187,313.500 L15.588,312.000 L12.990,313.500ZM20.785,315.000 L23.383,313.500 L20.785,312.000 L18.187,313.500ZM25.981,315.000 L28.579,313.500 L25.981,312.000 L23.383,313.500ZM31.177,315.000 L33.775,313.500 L31.177,312.000 L28.579,313.500ZM36.373,315.000 L38.971,313.500 L36.373,312.000 L33.775,313.500ZM41.569,315.000 L44.167,313.500 L41.569,312.000 L38.971,313.500ZM46.765,315.000 L49.363,313.500 L46.765,312.000 L44.167,313.500ZM51.962,315.000 L54.560,313.500 L51.962,312.000 L49.363,313.500ZM-7.794,319.500 L-5.196,318.000 L-7.794,316.500 L-10.392,318.000ZM-2.598,319.500 L0.000,318.000 L-2.598,316.500 L-5.196,318.000ZM2.598,319.500 L5.196,318.000 L2.598,316.500 L0.000,318.000ZM7.794,319.500 L10.392,318.000 L7.794,316.500 L5.196,318.000ZM12.990,319.500 L15.588,318.000 L12.990,316.500 L10.392,318.000ZM18.187,319.500 L20.785,318.000 L18.187,316.500 L15.588,318.000ZM23.383,319.500 L25.981,318.000 L23.383,316.500 L20.785,318.000ZM28.579,319.500 L31.177,318.000 L28.579,316.500 L25.981,318.000ZM33.775,319.500 L36.373,318.000 L33.775,316.500 L31.177,318.000ZM38.971,319.500 L41.569,318.000 L38.971,316.500 L36.373,318.000ZM44.167,319.500 L46.765,318.000 L44.167,316.500 L41.569,318.000ZM49.363,319.500 L51.962,318.000 L49.363,316.500 L46.765,318.000ZM54.560,319.500 L57.158,318.000 L54.560,316.500 L51.962,318.000ZM-10.392,324.000 L-7.794,322.500 L-10.392,321.000 L-12.990,322.500ZM-5.196,324.000 L-2.598,322.500 L-5.196,321.000 L-7.794,322.500ZM0.000,324.000 L2.598,322.500 L0.000,321.000 L-2.598,322.500ZM5.196,324.000 L7.794,322.500 L5.196,321.000 L2.598,322.500ZM10.392,324.000 L12.990,322.500 L10.392,321.000 L7.794,322.500ZM15.588,324.000 L18.187,322.500 L15.588,321.000 L12.990,322.500ZM20.785,324.000 L23.383,322.500 L20.785,321.000 L18.187,322.500ZM25.981,324.000 L28.579,322.500 L25.981,321.000 L23.383,322.500ZM31.177,324.000 L33.775,322.500 L31.177,321.000 L28.579,322.500ZM36.373,324.000 L38.971,322.500 L36.373,321.000 L33.775,322.500ZM41.569,324.000 L44.167,322.500 L41.569,321.000 L38.971,322.500ZM46.765,324.000 L49.363,322.500 L46.765,321.000 L44.167,322.500ZM51.962,324.000 L54.560,322.500 L51.962,321.000 L49.363,322.500ZM-7.794,328.500 L-5.196,327.000 L-7.794,325.500 L-10.392,327.000ZM-2.598,328.500 L0.000,327.000 L-2.598,325.500 L-5.196,327.000ZM2.598,328.500 L5.196,327.000 L2.598,325.500 L0.000,327.000ZM7.794,328.500 L10.392,327.000 L7.794,325.500 L5.196,327.000ZM12.990,328.500 L15.588,327.000 L12.990,325.500 L10.392,327.000ZM18.187,328.500 L20.785,327.000 L18.187,325.500 L15.588,327.000ZM23.383,328.500 L25.981,327.000 L23.383,325.500 L20.785,327.000ZM28.579,328.500 L31.177,327.000 L28.579,325.500 L25.981,327.000ZM33.775,328.500 L36.373,327.000 L33.775,325.500 L31.177,327.000ZM38.971,328.500 L41.569,327.000 L38.971,325.500 L36.373,327.000ZM44.167,328.500 L46.765,327.000 L44.167,325.500 L41.569,327.000ZM49.363,328.500 L51.962,327.000 L49.363,325.500 L46.765,327.000ZM54.560,328.500 L57.158,327.000 L54.560,325.500 L51.962,327.000ZM-10.392,333.000 L-7.794,331.500 L-10.392,330.000 L-12.990,331.500ZM-5.196,333.000 L-2.598,331.500 L-5.196,330.000 L-7.794,331.500ZM0.000,333.000 L2.598,331.500 L0.000,330.000 L-2.598,331.500ZM5.196,333.000 L7.794,331.500 L5.196,330.000 L2.598,331.500ZM10.392,333.000 L12.990,331.500 L10.392,330.000 L7.794,331.500ZM15.588,333.000 L18.187,331.500 L15.588,330.000 L12.990,331.500ZM20.785,333.000 L23.383,331.500 L20.785,330.000 L18.187,331.500ZM25.981,333.000 L28.579,331.500 L25.981,330.000 L23.383,331.500ZM31.177,333.000 L33.775,331.500 L31.177,330.000 L28.579,331.500ZM36.373,333.000 L38.971,331.500 L36.373,330.000 L33.775,331.500ZM41.569,333.000 L44.167,331.500 L41.569,330.000 L38.971,331.500ZM46.765,333.000 L49.363,331.500 L46.765,330.000 L44.167,331.500ZM51.962,333.000 L54.560,331.500 L51.962,330.000 L49.363,331.500ZM-7.794,337.500 L-5.196,336.000 L-7.794,334.500 L-10.392,336.000ZM-2.598,337.500 L0.000,336.000 L-2.598,334.500 L-5.196,336.000ZM2.598,337.500 L5.196,336.000 L2.598,334.500 L0.000,336.000ZM7.794,337.500 L10.392,336.000 L7.794,334.500 L5.196,336.000ZM12.990,337.500 L15.588,336.000 L12.990,334.500 L10.392,336.000ZM18.187,337.500 L20.785,336.000 L18.187,334.500 L15.588,336.000ZM23.383,337.500 L25.981,336.000 L23.383,334.500 L20.785,336.000ZM28.579,337.500 L31.177,336.000 L28.579,334.500 L25.981,336.000ZM33.775,337.500 L36.373,336.000 L33.775,334.500 L31.177,336.000ZM38.971,337.500 L41.569,336.000 L38.971,334.500 L36.373,336.000ZM44.167,337.500 L46.765,336.000 L44.167,334.500 L41.569,336.000ZM49.363,337.500 L51.962,336.000 L49.363,334.500 L46.765,336.000ZM54.560,337.500 L57.158,336.000 L54.560,334.500 L51.962,336.000ZM-10.392,342.000 L-7.794,340.500 L-10.392,339.000 L-12.990,340.500ZM-5.196,342.000 L-2.598,340.500 L-5.196,339.000 L-7.794,340.500ZM0.000,342.000 L2.598,340.500 L0.000,339.000 L-2.598,340.500ZM5.196,342.000 L7.794,340.500 L5.196,339.000 L2.598,340.500ZM10.392,342.000 L12.990,340.500 L10.392,339.000 L7.794,340.500ZM15.588,342.000 L18.187,340.500 L15.588,339.000 L12.990,340.500ZM20.785,342.000 L23.383,340.500 L20.785,339.000 L18.187,340.500ZM25.981,342.000 L28.579,340.500 L25.981,339.000 L23.383,340.500ZM31.177,342.000 L33.775,340.500 L31.177,339.000 L28.579,340.500ZM36.373,342.000 L38.971,340.500 L36.373,339.000 L33.775,340.500ZM41.569,342.000 L44.167,340.500 L41.569,339.000 L38.971,340.500ZM46.765,342.000 L49.363,340.500 L46.765,339.000 L44.167,340.500ZM51.962,342.000 L54.560,340.500 L51.962,339.000 L49.363,340.500ZM-7.794,346.500 L-5.196,345.000 L-7.794,343.500 L-10.392,345.000ZM-2.598,346.500 L0.000,345.000 L-2.598,343.500 L-5.196,345.000ZM2.598,346.500 L5.196,345.000 L2.598,343.500 L0.000,345.000ZM7.794,346.500 L10.392,345.000 L7.794,343.500 L5.196,345.000ZM12.990,346.500 L15.588,345.000 L12.990,343.500 L10.392,345.000ZM18.187,346.500 L20.785,345.000 L18.187,343.500 L15.588,345.000ZM23.383,346.500 L25.981,345.000 L23.383,343.500 L20.785,345.000ZM28.579,346.500 L31.177,345.000 L28.579,343.500 L25.981,345.000ZM33.775,346.500 L36.373,345.000 L33.775,343.500 L31.177,345.000ZM38.971,346.500 L41.569,345.000 L38.971,343.500 L36.373,345.000ZM44.167,346.500 L46.765,345.000 L44.167,343.500 L41.569,345.000ZM49.363,346.500 L51.962,345.000 L49.363,343.500 L46.765,345.000ZM54.560,346.500 L57.158,345.000 L54.560,343.500 L51.962,345.000ZM-10.392,351.000 L-7.794,349.500 L-10.392,348.000 L-12.990,349.500ZM-5.196,351.000 L-2.598,349.500 L-5.196,348.000 L-7.794,349.500ZM0.000,351.000 L2.598,349.500 L0.000,348.000 L-2.598,349.500ZM5.196,351.000 L7.794,349.500 L5.196,348.000 L2.598,349.500ZM10.392,351.000 L12.990,349.500 L10.392,348.000 L7.794,349.500ZM15.588,351.000 L18.187,349.500 L15.588,348.000 L12.990,349.500ZM20.785,351.000 L23.383,349.500 L20.785,348.000 L18.187,349.500ZM25.981,351.000 L28.579,349.500 L25.981,348.000 L23.383,349.500ZM31.177,351.000 L33.775,349.500 L31.177,348.000 L28.579,349.500ZM36.373,351.000 L38.971,349.500 L36.373,348.000 L33.775,349.500ZM41.569,351.000 L44.167,349.500 L41.569,348.000 L38.971,349.500ZM46.765,351.000 L49.363,349.500 L46.765,348.000 L44.167,349.500ZM51.962,351.000 L54.560,349.500 L51.962,348.000 L49.363,349.500ZM-7.794,355.500 L-5.196,354.000 L-7.794,352.500 L-10.392,354.000ZM-2.598,355.500 L0.000,354.000 L-2.598,352.500 L-5.196,354.000ZM2.598,355.500 L5.196,354.000 L2.598,352.500 L0.000,354.000ZM7.794,355.500 L10.392,354.000 L7.794,352.500 L5.196,354.000ZM12.990,355.500 L15.588,354.000 L12.990,352.500 L10.392,354.000ZM18.187,355.500 L20.785,354.000 L18.187,352.500 L15.588,354.000ZM23.383,355.500 L25.981,354.000 L23.383,352.500 L20.785,354.000ZM28.579,355.500 L31.177,354.000 L28.579,352.500 L25.981,354.000ZM33.775,355.500 L36.373,354.000 L33.775,352.500 L31.177,354.000ZM38.971,355.500 L41.569,354.000 L38.971,352.500 L36.373,354.000ZM44.167,355.500 L46.765,354.000 L44.167,352.500 L41.569,354.000ZM49.363,355.500 L51.962,354.000 L49.363,352.500 L46.765,354.000ZM54.560,355.500 L57.158,354.000 L54.560,352.500 L51.962,354.000Z" fill="#000000" stroke="none" fill-rule="nonzero"/></svg>
